<svg xmlns="http://www.w3.org/2000/svg" xmlns:xlink="http://www.w3.org/1999/xlink" version="1.1" width="84.9449075460434" height="75.56195771694183" viewBox="0.07982957363128662 0.5145496726036072 84.9449075460434 75.56195771694183">
  <!-- Exported by Scratch - http://scratch.mit.edu/ -->
  <g id="ID0.4356587138026953">
    <g id="Lime_Green_Leg">
      <path id="ID0.014040753711014986" fill="#99FFBB" d="M 4.3501 71.0531 C 3.3954 71.0531 2.4876 70.7019 1.9233 70.1132 C 1.6224 69.7996 1.4638 69.4567 1.4764 69.1467 C 1.7837 66.6264 3.2048 59.981 4.1901 59.5068 C 4.2244 59.4999 4.2956 59.4936 4.3843 59.4936 C 4.8724 59.4936 5.8676 59.6898 7.0191 59.9175 C 8.7698 60.2645 10.9431 60.6947 12.5688 60.6947 C 13.0814 60.6947 13.5143 60.6507 13.8544 60.5634 C 16.1722 59.9705 19.9265 57.0717 20.6548 56.4963 C 21.3085 56.0228 21.8762 55.7868 22.3748 55.7868 C 23.5858 55.7868 23.8958 57.2282 23.8986 57.2435 L 23.8986 57.2442 C 23.7862 57.4384 21.3727 61.5285 16.939 62.3637 C 15.8663 62.5663 14.5975 62.6696 13.1673 62.6696 C 10.7524 62.6696 8.4346 62.3777 7.2684 62.2038 L 6.2328 62.0495 L 6.4884 63.0649 C 7.3068 66.3184 7.612 70.0336 6.0156 70.704 C 5.466 70.9365 4.9052 71.0531 4.3501 71.0531 L 4.3501 71.0531 L 4.3501 71.0531 L 4.3501 71.0531 Z " stroke-width="0.6983372569084167"/>
      <path id="ID0.06063009100034833" d="M 22.3755 56.4865 C 22.7932 56.4865 23.0257 56.8804 23.1353 57.1472 C 22.5452 58.0361 20.3329 61.0152 16.8084 61.6787 C 15.7791 61.8728 14.5542 61.972 13.1666 61.972 C 10.7964 61.972 8.5184 61.685 7.3718 61.5139 L 5.3005 61.2052 L 5.8117 63.2367 C 6.8271 67.2723 6.547 69.7249 5.7474 70.0608 C 5.2816 70.2549 4.8124 70.3541 4.3501 70.3541 C 3.5931 70.3541 2.8563 70.0769 2.4275 69.6292 C 2.2481 69.4421 2.1866 69.2877 2.1768 69.2012 C 2.4862 66.8568 3.6224 61.3868 4.4932 60.1954 C 4.9625 60.2233 5.8983 60.4084 6.8885 60.6039 C 8.6644 60.9559 10.8753 61.3937 12.5695 61.3937 C 13.1484 61.3937 13.6254 61.3442 14.0283 61.2408 C 16.4627 60.6179 20.2798 57.6821 21.0697 57.0599 C 21.5997 56.68 22.0389 56.4865 22.3755 56.4865 M 22.3755 55.0899 C 21.7247 55.0899 21.0312 55.3636 20.2289 55.9453 C 20.187 55.9781 16.013 59.2924 13.6826 59.8881 C 13.3991 59.9608 13.0241 59.9971 12.5695 59.9971 C 11.0164 59.9971 8.8781 59.5746 7.1602 59.2338 C 5.9213 58.9887 4.9423 58.7952 4.385 58.7952 C 4.2397 58.7952 4.1168 58.8078 4.01 58.8336 C 2.2369 59.2582 0.783 69.0224 0.7795 69.1181 C 0.7585 69.6195 0.9862 70.1446 1.4198 70.5964 C 2.1133 71.3192 3.209 71.7508 4.3501 71.7508 C 5.0002 71.7508 5.6511 71.6153 6.2866 71.3492 C 8.707 70.3332 7.774 65.3114 7.1665 62.8959 C 8.4654 63.0893 10.7601 63.3693 13.1673 63.3693 C 13.168 63.3693 13.168 63.3693 13.168 63.3693 C 14.6394 63.3693 15.9515 63.2632 17.0689 63.0516 C 21.8211 62.157 24.3972 57.7812 24.5048 57.5948 L 24.6375 57.3657 L 24.5837 57.1053 C 24.4405 56.4083 23.7939 55.0899 22.3755 55.0899 L 22.3755 55.0899 L 22.3755 56.4865 L 22.3755 56.4865 Z " stroke-width="0.6983372569084167" fill="undefined"/>
    </g>
    <path id="Pink_Leg" fill="#99FFBB" stroke="#000000" stroke-width="1.3966745138168335" d="M 39.1915 60.1842 C 39.4897 59.3762 39.7222 56.7812 39.7222 56.7812 L 45.1777 54.8894 C 45.1777 54.8894 44.1085 61.451 40.1475 63.8163 C 36.188 66.1836 31.9679 66.9644 31.9679 66.9644 C 31.9679 66.9644 38.1796 72.1251 35.3283 74.8109 C 32.4763 77.4981 27.9196 69.8234 27.9259 68.7689 C 27.9322 67.7144 27.6298 65.7884 31.4393 64.8261 C 35.2501 63.8652 38.1007 63.1389 39.1915 60.1842 L 39.1915 60.1842 L 39.1915 60.1842 Z "/>
    <path id="Light_Blue_Leg" fill="#99FFBB" stroke="#000000" stroke-width="1.3966745138168335" d="M 59.4775 52.1198 L 56.5124 52.1198 C 56.5124 52.1198 61.1919 56.643 63.4483 59.7045 C 65.7018 62.7681 65.9099 68.3324 66.2891 69.5259 C 66.6669 70.7193 71.6851 72.5769 74.1328 73.5015 C 76.5805 74.4261 77.7802 70.4274 76.4171 68.6565 C 75.0532 66.8869 68.8667 66.1501 68.8667 66.1501 C 68.8667 66.1501 67.5475 61.6207 65.4664 57.6877 C 63.3847 53.756 59.4775 52.1198 59.4775 52.1198 L 59.4775 52.1198 L 59.4775 52.1198 L 59.4775 52.1198 Z "/>
    <path id="Blue_Leg_1_" fill="#99FFBB" stroke="#000000" stroke-width="1.3966745138168335" d="M 20.6639 20.1004 C 20.6639 20.1004 16.358 16.6673 13.8551 16.0277 C 11.3523 15.3866 5.1259 17.307 4.1727 17.0794 C 3.2209 16.8503 1.5225 8.5415 1.4771 7.4444 C 1.431 6.348 3.5561 4.8543 6.0163 5.8857 C 8.4758 6.9165 6.2062 14.5598 6.2062 14.5598 C 6.2062 14.5598 12.4501 13.3775 16.939 14.2232 C 21.4307 15.0702 23.8993 19.3434 23.8993 19.3434 "/>
    <path id="Yellow_Leg" fill="#99FFBB" stroke="#000000" stroke-width="1.3966745138168335" d="M 39.1915 16.4083 C 39.4897 17.2155 39.7222 19.8099 39.7222 19.8099 L 45.1777 21.7017 C 45.1777 21.7017 44.1085 15.1401 40.1475 12.7734 C 36.188 10.4081 31.9679 9.6267 31.9679 9.6267 C 31.9679 9.6267 38.1796 4.4674 35.3283 1.7802 C 32.4763 -0.907 27.9196 6.767 27.9259 7.8222 C 27.9322 8.8774 27.6298 10.8034 31.4393 11.765 C 35.2501 12.7273 38.1007 13.4529 39.1915 16.4083 L 39.1915 16.4083 L 39.1915 16.4083 Z "/>
    <path id="Dark_Green_Leg_1_" fill="#99FFBB" stroke="#000000" stroke-width="1.3966745138168335" d="M 59.4775 24.4734 L 56.5124 24.4734 C 56.5124 24.4734 61.1919 19.9516 63.4483 16.8873 C 65.7018 13.8237 65.9099 8.2594 66.2891 7.0659 C 66.6669 5.8724 71.6851 4.0149 74.1328 3.0889 C 76.5812 2.1643 77.7802 6.1643 76.4171 7.9346 C 75.0532 9.7063 68.8667 10.4417 68.8667 10.4417 C 68.8667 10.4417 67.5475 14.9725 65.4664 18.9048 C 63.3854 22.8371 59.4775 24.4734 59.4775 24.4734 L 59.4775 24.4734 L 59.4775 24.4734 L 59.4775 24.4734 Z "/>
    <path id="Top_Antenna" fill="#99FFBB" stroke="#000000" stroke-width="1.3966745138168335" d="M 68.1669 28.1312 C 68.1669 28.1312 70.2459 22.7778 74.3821 19.0815 C 77.0393 16.7085 80.9646 15.0514 81.5198 14.9103 C 82.0736 14.77 80.494 4.7055 80.6958 4.9974 C 83.744 9.3921 84.3264 16.9578 84.3264 16.9578 C 84.3264 16.9578 80.1364 17.7721 75.1377 21.5557 C 70.139 25.3379 70.2438 29.6166 70.2438 29.6166 L 68.1669 28.1312 L 68.1669 28.1312 L 68.1669 28.1312 Z "/>
    <path id="Bottom_Antenna" fill="#99FFBB" stroke="#000000" stroke-width="1.3966745138168335" d="M 68.1669 48.4612 C 68.1669 48.4612 70.2459 53.8147 74.3821 57.5096 C 77.0393 59.8811 80.9646 61.5397 81.5198 61.6829 C 82.0736 61.8232 80.494 71.8856 80.6958 71.5951 C 83.744 67.199 84.3264 59.6332 84.3264 59.6332 C 84.3264 59.6332 80.1364 58.819 75.1377 55.0368 C 70.139 51.2532 70.2438 46.9759 70.2438 46.9759 L 68.1669 48.4612 L 68.1669 48.4612 L 68.1669 48.4612 Z "/>
    <g id="Body">
      <path id="Wing_Fill_1_" fill="#99FFBB" d="M 51.0116 44.9325 C 49.2189 39.4073 44.973 38.9548 44.8439 38.9436 L 3.7013 38.9436 C 4.5784 50.5535 24.4817 59.7373 40.6406 55.2519 C 44.1727 54.2735 47.5576 52.6764 50.8188 51.9494 C 51.2748 50.7343 52.0137 48.0157 51.0116 44.9325 L 51.0116 44.9325 L 51.0116 44.9325 Z " stroke-width="0.6983372569084167"/>
      <path id="Wing_Fill" fill="#99FFBB" d="M 3.7069 37.2411 L 44.8313 37.2411 C 44.8313 37.2411 49.1903 36.8605 51.0116 31.2521 C 51.9362 28.4078 51.3782 25.8721 50.9285 24.5425 C 47.677 23.7645 44.2614 22.129 40.6427 21.0466 C 24.6598 16.2644 4.7118 25.6682 3.7069 37.2411 L 3.7069 37.2411 L 3.7069 37.2411 Z " stroke-width="0.6983372569084167"/>
      <path id="Head_Fill" fill="#99FFBB" d="M 72.1286 38.1496 C 72.1286 30.6068 65.1487 24.9845 54.2924 24.9845 C 53.9683 24.9845 53.6422 24.9657 53.3168 24.9384 C 53.5933 26.1158 53.821 28.3366 52.925 31.6104 C 51.9089 35.3297 49.4934 37.181 47.5639 38.0916 C 49.4934 39.0023 51.9089 40.8549 52.925 44.575 C 53.8377 47.9144 53.5172 50.3209 53.1841 51.5919 C 53.453 51.573 53.7204 51.5633 53.9858 51.5633 C 65.2961 51.5633 72.1286 45.6937 72.1286 38.1496 L 72.1286 38.1496 L 72.1286 38.1496 Z " stroke-width="0.6983372569084167"/>
      <path id="Outline" fill="#231F20" d="M 55.5026 23.3197 C 50.9431 23.3197 46.0939 20.659 40.8431 19.0878 C 23.2352 13.8195 1.1307 25.2876 1.1307 38.1538 C 1.1307 51.0199 23.0969 62.1459 40.8445 57.2191 C 45.8781 55.821 50.6414 53.2567 55.1764 53.2567 C 67.3212 53.2567 74.6566 46.2531 74.6566 38.1538 C 74.6566 30.0538 67.1606 23.3197 55.5026 23.3197 L 55.5026 23.3197 L 55.5026 23.3197 Z M 53.1841 51.5919 C 53.5172 50.3209 53.8377 47.9144 52.925 44.575 C 51.9089 40.8549 49.4934 39.003 47.5639 38.0916 C 49.4934 37.181 51.9089 35.329 52.925 31.6104 C 53.8196 28.3366 53.5933 26.1158 53.3168 24.9384 C 53.6436 24.9657 53.9697 24.9845 54.2924 24.9845 C 65.1487 24.9845 72.1286 30.6068 72.1286 38.1496 C 72.1286 45.6937 65.2961 51.5633 53.9865 51.5633 C 53.7197 51.5633 53.453 51.5723 53.1841 51.5919 L 53.1841 51.5919 L 53.1841 51.5919 Z M 40.6413 21.0466 C 44.2614 22.129 47.6756 23.7652 50.9278 24.5425 C 51.3782 25.8721 51.9348 28.4078 51.0109 31.2521 C 49.1903 36.8605 44.8299 37.2411 44.8299 37.2411 L 3.7069 37.2411 C 4.7118 25.6682 24.6598 16.2644 40.6413 21.0466 L 40.6413 21.0466 L 40.6413 21.0466 Z M 40.6406 55.2519 C 24.481 59.7373 4.5784 50.5535 3.7013 38.9436 L 44.8439 38.9436 C 44.973 38.9562 49.2189 39.4073 51.0116 44.9325 C 52.0151 48.0136 51.2748 50.7343 50.8202 51.9473 C 47.5576 52.6757 44.1727 54.2728 40.6406 55.2519 L 40.6406 55.2519 L 40.6406 55.2519 Z " stroke-width="0.6983372569084167"/>
    </g>
    <g id="Eye">
      <g id="White_1_">
        <path id="ID0.4698791243135929" fill="#FFFFFF" d="M 64.6473 36.9443 C 64.5167 36.9443 64.3875 36.9352 64.259 36.9156 C 63.495 36.8018 62.7772 36.3367 62.2883 35.6398 C 61.789 34.9282 61.583 34.0713 61.7101 33.2263 C 61.944 31.6509 63.3198 30.4155 64.8414 30.4155 C 64.9713 30.4155 65.0991 30.4253 65.2269 30.4441 C 65.9916 30.5587 66.7102 31.0245 67.1983 31.7221 C 67.6955 32.4337 67.8995 33.2899 67.7724 34.1342 C 67.5384 35.7096 66.1648 36.9443 64.6473 36.9443 L 64.6473 36.9443 L 64.6473 36.9443 L 64.6473 36.9443 Z " stroke-width="0.6983372569084167"/>
        <path id="ID0.5066214520484209" d="M 64.8414 31.1138 C 64.9364 31.1138 65.0307 31.1208 65.1236 31.1348 C 66.3058 31.3115 67.2919 32.6257 67.0824 34.0301 C 66.889 35.3234 65.7514 36.2459 64.6473 36.2459 C 64.5509 36.2459 64.4574 36.2389 64.3631 36.225 C 63.1822 36.049 62.1905 34.7354 62.4007 33.3297 C 62.5928 32.037 63.7395 31.1138 64.8414 31.1138 M 64.8414 29.7172 C 62.9818 29.7172 61.3023 31.2144 61.018 33.1251 C 60.8651 34.1446 61.1137 35.181 61.7164 36.0399 C 62.3142 36.8933 63.2045 37.4638 64.1557 37.6056 C 64.3156 37.63 64.4811 37.6419 64.6459 37.6419 C 66.4993 37.6419 68.1774 36.1461 68.4623 34.2361 C 68.6166 33.2144 68.3694 32.1795 67.7696 31.3205 C 67.1725 30.4665 66.2828 29.8945 65.3296 29.7528 C 65.1704 29.7297 65.0069 29.7172 64.8414 29.7172 L 64.8414 29.7172 L 64.8414 31.1138 L 64.8414 31.1138 Z " stroke-width="0.6983372569084167" fill="undefined"/>
      </g>
      <path id="Pupil_1_" d="M 66.1564 32.4784 C 66.4944 32.4784 66.8003 32.6243 67.0223 32.8604 C 67.2437 33.0957 67.3813 33.4211 67.3813 33.7808 C 67.3813 34.1404 67.2437 34.4659 67.0223 34.7012 C 66.8003 34.9372 66.4944 35.0832 66.1564 35.0832 C 65.8184 35.0832 65.5125 34.9372 65.2905 34.7012 C 65.0691 34.4659 64.9315 34.1404 64.9315 33.7808 C 64.9315 33.4211 65.0691 33.0957 65.2905 32.8604 C 65.5125 32.6243 65.8184 32.4784 66.1564 32.4784 L 66.1564 32.4784 Z " stroke-width="0.6983372569084167" fill="undefined"/>
    </g>
    <g id="Eye_1_">
      <g id="White">
        <path id="ID0.23315615905448794" fill="#FFFFFF" d="M 64.7018 46.4305 C 64.5712 46.4305 64.442 46.4207 64.3135 46.4018 C 63.5495 46.2873 62.8309 45.8222 62.3428 45.1253 C 61.8435 44.413 61.6375 43.5568 61.7646 42.7125 C 61.9985 41.1371 63.3742 39.9017 64.8959 39.9017 C 65.0258 39.9017 65.1536 39.9122 65.2814 39.9303 C 66.0461 40.0449 66.7647 40.51 67.2528 41.2083 C 67.7493 41.9199 67.9539 42.7754 67.8268 43.6197 C 67.5929 45.1958 66.2193 46.4305 64.7018 46.4305 L 64.7018 46.4305 L 64.7018 46.4305 L 64.7018 46.4305 Z " stroke-width="0.6983372569084167"/>
        <path id="ID0.6588016310706735" d="M 64.8959 40.5994 C 64.9909 40.5994 65.0852 40.6063 65.178 40.6196 C 66.3603 40.797 67.3464 42.1106 67.1369 43.5149 C 66.9434 44.8096 65.8058 45.7314 64.7018 45.7314 C 64.6054 45.7314 64.5118 45.7245 64.4175 45.7112 C 63.2367 45.5338 62.245 44.2202 62.4545 42.8159 C 62.6473 41.5233 63.7939 40.5994 64.8959 40.5994 M 64.8959 39.2027 C 63.0355 39.2027 61.3567 40.7006 61.0725 42.6113 C 60.9196 43.6315 61.1682 44.6665 61.7701 45.5261 C 62.3679 46.3802 63.259 46.95 64.2101 47.0918 C 64.3701 47.1162 64.5356 47.1288 64.7004 47.1288 C 66.5538 47.1288 68.2319 45.6323 68.5168 43.723 C 68.6711 42.7014 68.4239 41.6664 67.824 40.8068 C 67.227 39.9527 66.3366 39.3815 65.384 39.2397 C 65.2248 39.2153 65.0614 39.2027 64.8959 39.2027 L 64.8959 39.2027 L 64.8959 40.5994 L 64.8959 40.5994 Z " stroke-width="0.6983372569084167" fill="undefined"/>
      </g>
      <path id="Pupil" d="M 66.2109 41.9639 C 66.5489 41.9639 66.8547 42.1099 67.0768 42.3459 C 67.2982 42.5812 67.4358 42.9067 67.4358 43.2663 C 67.4358 43.626 67.2982 43.9514 67.0768 44.1867 C 66.8547 44.4228 66.5489 44.5687 66.2109 44.5687 C 65.8729 44.5687 65.567 44.4228 65.3449 44.1867 C 65.1236 43.9514 64.986 43.626 64.986 43.2663 C 64.986 42.9067 65.1236 42.5812 65.3449 42.3459 C 65.567 42.1099 65.8729 41.9639 66.2109 41.9639 L 66.2109 41.9639 Z " stroke-width="0.6983372569084167" fill="undefined"/>
    </g>
  </g>
</svg>