<svg xmlns="http://www.w3.org/2000/svg" xmlns:xlink="http://www.w3.org/1999/xlink" version="1.1" width="83.61459964513779" height="86.24323123693466" viewBox="0.2751930058002472 0.5100843012332916 83.61459964513779 86.24323123693466">
  <!-- Exported by Scratch - http://scratch.mit.edu/ -->
  <g id="ID0.4697581664659083">
    <path id="Bottom_Leg3" fill="#000000" stroke="#000000" stroke-width="1.9803223013877869" d="M 16.8079 66.0433 C 16.33 68.7524 15.7491 71.2984 14.085 73.5408 C 12.3271 75.908 9.7672 78.2454 6.6396 78.2144 C 4.9273 78.1985 -0.5529 75.8486 1.8769 73.4973 C 2.8407 72.5672 4.7788 72.8781 5.9432 73.2385 C 8.6549 74.0782 9.9388 73.1111 11.0571 71.9321 C 13.3754 69.4957 13.7179 67.8494 14.788 65.6717 C 14.9028 65.438 16.3973 66.0975 16.6455 66.0163 L 16.8079 66.0433 L 16.8079 66.0433 L 16.8079 66.0433 L 16.8079 66.0433 L 16.8079 66.0433 L 16.8079 66.0433 L 16.8079 66.0433 Z "/>
    <path id="Bottom_Leg2" fill="#000000" stroke="#000000" stroke-width="1.9803223013877869" d="M 28.9889 70.1182 C 29.3783 73.4662 29.9058 76.6301 31.7811 79.5009 C 33.7634 82.5269 36.7273 85.5719 40.5632 85.7601 C 42.661 85.8624 49.5433 83.3817 46.7365 80.328 C 45.6236 79.1187 43.2307 79.357 41.7752 79.7168 C 38.3928 80.5531 36.891 79.2692 35.6058 77.7503 C 32.9436 74.597 32.6426 72.5586 31.4894 69.8112 C 31.3653 69.5181 29.4866 70.2152 29.1862 70.101 L 28.9889 70.1182 L 28.9889 70.1182 L 28.9889 70.1182 L 28.9889 70.1182 L 28.9889 70.1182 L 28.9889 70.1182 L 28.9889 70.1182 Z "/>
    <path id="Bottom_Leg1" fill="#000000" stroke="#000000" stroke-width="1.9803223013877869" d="M 47.8072 62.0754 C 49.7783 64.8116 51.7817 67.316 54.8156 68.9082 C 58.0197 70.5862 62.0959 71.8047 65.5357 70.1023 C 67.4183 69.1703 72.2206 63.6518 68.2798 62.352 C 66.7206 61.8384 64.5284 63.1058 63.123 63.6287 C 61.3051 64.3039 59.4535 64.7489 57.4692 64.6122 C 53.4399 64.335 52.1837 62.4312 49.8384 60.5941 C 49.5855 60.3954 48.2858 61.9236 47.9676 61.9698 L 47.8072 62.0754 L 47.8072 62.0754 L 47.8072 62.0754 L 47.8072 62.0754 L 47.8072 62.0754 L 47.8072 62.0754 L 47.8072 62.0754 Z "/>
    <path id="Top_Leg3" fill="#000000" stroke="#000000" stroke-width="1.9803223013877869" d="M 16.8079 20.1738 C 16.33 17.4647 15.7491 14.9187 14.085 12.6763 C 12.3271 10.3085 9.7672 7.971 6.6396 8.0027 C 4.9273 8.0186 -0.5523 10.3685 1.8769 12.7185 C 2.8407 13.6493 4.7788 13.3377 5.9432 12.9793 C 8.6549 12.139 9.9388 13.1067 11.0571 14.285 C 13.3754 16.7227 13.7179 18.369 14.788 20.5467 C 14.9028 20.7804 16.3973 20.121 16.6455 20.2002 L 16.8079 20.1738 L 16.8079 20.1738 L 16.8079 20.1738 L 16.8079 20.1738 L 16.8079 20.1738 L 16.8079 20.1738 L 16.8079 20.1738 Z "/>
    <path id="Top_Leg2" fill="#000000" stroke="#000000" stroke-width="1.9803223013877869" d="M 28.9889 17.1439 C 29.3783 13.7971 29.9058 10.6332 31.7811 7.7624 C 33.7634 4.7358 36.7267 1.6914 40.5632 1.5033 C 42.661 1.401 49.5433 3.8817 46.7365 6.9353 C 45.6236 8.1446 43.2307 7.905 41.7752 7.5459 C 38.3928 6.7102 36.891 7.9941 35.6058 9.5124 C 32.9436 12.6657 32.6426 14.7041 31.4894 17.4515 C 31.3653 17.7446 29.4866 17.0475 29.1862 17.1617 L 28.9889 17.1439 L 28.9889 17.1439 L 28.9889 17.1439 L 28.9889 17.1439 L 28.9889 17.1439 L 28.9889 17.1439 L 28.9889 17.1439 Z "/>
    <path id="Top_Leg1" fill="#000000" stroke="#000000" stroke-width="1.9803223013877869" d="M 50.4476 26.4851 C 52.1844 24.4057 54.2637 21.3745 57.2831 21.3963 C 60.7579 21.4214 63.8432 25.0117 67.3781 24.3714 C 71.7744 23.5747 67.5405 18.2383 65.6605 17.0204 C 62.3104 14.8441 58.662 15.5293 55.2744 17.1716 C 52.8597 18.3407 49.5433 20.1804 48.5459 22.8822 C 48.4323 23.1885 48.194 23.4882 48.0369 23.776 C 49 24.45 49.6648 25.5411 50.3915 26.3181 L 50.4476 26.4851 L 50.4476 26.4851 L 50.4476 26.4851 L 50.4476 26.4851 L 50.4476 26.4851 L 50.4476 26.4851 L 50.4476 26.4851 Z "/>
    <g id="Bottom_Wing_1_">
      <g id="Bottom_Wing">
        <path id="ID0.9817337654531002" fill="#990000" d="M 29.6232 69.2739 C 25.1801 69.2739 20.7567 68.3167 16.8317 66.5061 L 16.6079 66.4031 L 16.6039 66.3971 L 16.4541 66.3265 C 9.15 62.8227 4.79 57.0065 4.79 50.7671 C 4.79 45.0803 10.4385 43.968 15.359 43.6347 L 15.419 43.6307 L 15.4785 43.634 C 16.8693 43.7079 18.4496 43.7429 20.453 43.7429 C 21.8459 43.7429 23.2902 43.7271 24.7754 43.7099 C 26.3537 43.6921 27.9769 43.6743 29.6312 43.6743 C 34.9021 43.6743 40.4483 43.634 46.114 43.5548 L 55.9846 43.535 L 55.9635 44.5482 C 55.848 49.9294 54.1013 54.91 50.7718 59.3518 L 50.7414 59.3914 L 50.7071 59.429 C 45.4401 65.1337 36.5768 69.2739 29.6312 69.2739 L 29.6232 69.2739 L 29.6232 69.2739 L 29.6232 69.2739 L 29.6232 69.2739 L 29.6232 69.2739 L 29.6232 69.2739 L 29.6232 69.2739 Z " stroke-width="0.660107433795929"/>
        <path id="ID0.8338045510463417" d="M 54.9733 44.5265 C 54.877 49.0093 53.5884 53.9429 49.9796 58.7577 C 45.044 64.1039 36.4065 68.2844 29.6318 68.2844 C 29.6292 68.2844 29.6259 68.2844 29.6232 68.2844 C 25.1741 68.2844 20.9085 67.2969 17.2462 65.607 C 17.1604 65.4941 17.0224 65.4334 16.8845 65.4334 C 16.8838 65.4334 16.8832 65.4334 16.8825 65.4334 C 10.3177 62.284 5.7808 56.8487 5.7808 50.7671 C 5.7808 46.3886 9.6556 45.0136 15.4263 44.6222 C 17.0026 44.706 18.6859 44.7324 20.4537 44.7324 C 23.3265 44.7324 26.4204 44.6638 29.6325 44.6638 C 35.821 44.6638 41.5553 44.6083 46.1286 44.5443 L 54.9733 44.5265 M 56.9972 42.5422 L 54.97 42.5461 L 46.1246 42.564 C 40.4398 42.6432 34.8988 42.6834 29.6325 42.6834 C 27.9703 42.6834 26.3412 42.7019 24.7655 42.7191 C 23.2605 42.7363 21.8393 42.7521 20.4537 42.7521 C 18.4681 42.7521 16.9043 42.7184 15.5319 42.6452 L 15.4118 42.6386 L 15.2923 42.6465 C 12.1495 42.8597 3.8005 43.4261 3.8005 50.7671 C 3.8005 57.3781 8.3453 63.5125 15.9617 67.188 L 15.9696 67.1985 L 16.3326 67.3662 L 16.4317 67.4137 L 16.4356 67.4137 C 20.4847 69.2785 25.0447 70.2641 29.6232 70.2641 C 36.829 70.2641 45.9979 65.9892 51.4345 60.101 L 51.5032 60.0264 L 51.5639 59.9459 C 55.0202 55.3351 56.8329 50.1618 56.953 44.5694 L 56.9972 42.5422 L 56.9972 42.5422 L 54.9733 44.5265 L 54.9733 44.5265 L 54.9733 44.5265 L 54.9733 44.5265 L 54.9733 44.5265 L 54.9733 44.5265 Z " stroke-width="0.660107433795929" fill="undefined"/>
      </g>
      <path id="Spot_9_" fill="#000000" d="M 36.2547 47.8448 C 38.1974 47.8448 39.9579 48.5604 41.2325 49.7169 C 42.5072 50.8734 43.296 52.4709 43.296 54.2333 C 43.296 55.9958 42.5072 57.5933 41.2325 58.7498 C 39.9579 59.9063 38.1974 60.6219 36.2547 60.6219 C 34.312 60.6219 32.5515 59.9063 31.2768 58.7498 C 30.0021 57.5933 29.2133 55.9958 29.2133 54.2333 C 29.2133 52.4709 30.0021 50.8734 31.2768 49.7169 C 32.5515 48.5604 34.312 47.8448 36.2547 47.8448 L 36.2547 47.8448 L 36.2547 47.8448 L 36.2547 47.8448 L 36.2547 47.8448 L 36.2547 47.8448 Z " stroke-width="0.660107433795929"/>
      <path id="Spot_8_" fill="#000000" d="M 15.2415 46.013 C 17.4271 46.013 19.4074 46.7834 20.8412 48.0283 C 22.2749 49.2726 23.1628 50.9916 23.1628 52.8887 C 23.1628 54.7859 22.2749 56.5048 20.8412 57.7491 C 19.4074 58.994 17.4271 59.7644 15.2415 59.7644 C 13.0559 59.7644 11.0755 58.994 9.6418 57.7491 C 8.208 56.5048 7.3202 54.7859 7.3202 52.8887 C 7.3202 50.9916 8.208 49.2726 9.6418 48.0283 C 11.0755 46.7834 13.0559 46.013 15.2415 46.013 L 15.2415 46.013 L 15.2415 46.013 L 15.2415 46.013 L 15.2415 46.013 L 15.2415 46.013 Z " stroke-width="0.660107433795929"/>
      <path id="Spot_7_" fill="#000000" d="M 27.0138 60.2146 C 27.9545 60.2146 28.8073 60.5625 29.4245 61.1242 C 30.0417 61.686 30.4239 62.4616 30.4239 63.3177 C 30.4239 64.1739 30.0417 64.9495 29.4245 65.5113 C 28.8073 66.073 27.9545 66.4209 27.0138 66.4209 C 26.0732 66.4209 25.2203 66.073 24.6031 65.5113 C 23.9859 64.9495 23.6037 64.1739 23.6037 63.3177 C 23.6037 62.4616 23.9859 61.686 24.6031 61.1242 C 25.2203 60.5625 26.0732 60.2146 27.0138 60.2146 L 27.0138 60.2146 L 27.0138 60.2146 L 27.0138 60.2146 L 27.0138 60.2146 L 27.0138 60.2146 Z " stroke-width="0.660107433795929"/>
      <path id="Spot_6_" fill="#000000" d="M 43.607 60.1644 C 41.084 60.5499 39.2945 62.5461 39.61 64.6294 C 39.6714 65.0301 39.816 65.4004 40.0127 65.741 C 42.7019 64.5198 45.277 62.9276 47.4686 61.111 C 46.4969 60.3301 45.0955 59.9367 43.607 60.1644 L 43.607 60.1644 L 43.607 60.1644 L 43.607 60.1644 L 43.607 60.1644 L 43.607 60.1644 L 43.607 60.1644 Z " stroke-width="0.660107433795929"/>
      <path id="Spot_5_" fill="#000000" d="M 43.337 47.5372 C 43.1845 50.0872 45.3582 52.2926 48.194 52.4623 C 51.0292 52.6326 53.4511 50.7024 53.6036 48.1524 C 53.6881 46.7451 53.0617 45.4453 52.0088 44.5324 L 46.1272 44.5443 C 45.7008 44.5502 45.2546 44.5562 44.8083 44.5614 C 43.9608 45.3285 43.4076 46.3655 43.337 47.5372 L 43.337 47.5372 L 43.337 47.5372 L 43.337 47.5372 L 43.337 47.5372 L 43.337 47.5372 L 43.337 47.5372 Z " stroke-width="0.660107433795929"/>
    </g>
    <g id="Top_Wing_1_">
      <g id="Top_Wing">
        <path id="ID0.5299901133403182" fill="#990000" d="M 29.6325 42.9825 C 27.8528 42.9825 26.1088 42.9587 24.4183 42.9363 C 22.8367 42.9151 21.3019 42.8947 19.8286 42.8947 C 18.3446 42.8947 17.0838 42.9165 15.9755 42.9613 L 15.922 42.9633 L 15.8686 42.96 C 10.7112 42.6102 4.7913 41.49 4.7913 35.8916 C 4.7913 25.8593 16.1676 17.3842 29.6331 17.3842 C 36.6164 17.3842 45.4955 21.395 50.7454 26.9207 L 50.7975 26.9762 L 50.8411 27.0396 C 51.0087 27.2812 54.9496 33.0538 55.8117 40.9982 L 55.9239 42.0346 L 46.184 42.5904 C 40.4807 42.8504 34.9153 42.9825 29.6325 42.9825 L 29.6325 42.9825 L 29.6325 42.9825 L 29.6325 42.9825 L 29.6325 42.9825 L 29.6325 42.9825 L 29.6325 42.9825 L 29.6325 42.9825 Z " stroke-width="0.660107433795929"/>
        <path id="ID0.40440370980650187" d="M 29.6325 18.3737 C 36.4342 18.3737 45.0849 22.4003 50.0272 27.602 C 50.0272 27.602 53.9825 33.3185 54.8275 41.1045 L 46.1279 41.6009 C 41.554 41.8101 35.8203 41.993 29.6325 41.993 C 26.1874 41.993 22.8776 41.9052 19.8286 41.9052 C 18.476 41.9052 17.1743 41.9223 15.9352 41.9725 C 9.886 41.5619 5.7808 40.1948 5.7808 35.8916 C 5.7808 26.3405 16.9617 18.3737 29.6325 18.3737 M 29.6325 16.3933 C 15.6303 16.3933 3.8005 25.322 3.8005 35.8909 C 3.8005 43.133 12.5192 43.7251 15.8012 43.9475 L 15.9082 43.9548 L 16.0151 43.9508 C 17.1109 43.9066 18.3578 43.8848 19.8286 43.8848 C 21.2933 43.8848 22.805 43.9053 24.4051 43.9264 C 26.0956 43.9495 27.8436 43.9726 29.6325 43.9726 C 34.9305 43.9726 40.511 43.84 46.219 43.5785 L 54.9403 43.0808 L 57.021 42.962 L 56.7959 40.8899 C 55.9067 32.6987 51.8286 26.7253 51.655 26.4745 L 51.5678 26.3484 L 51.4622 26.2375 C 46.0427 20.5335 36.862 16.3933 29.6325 16.3933 L 29.6325 16.3933 L 29.6325 18.3737 L 29.6325 18.3737 L 29.6325 18.3737 L 29.6325 18.3737 L 29.6325 18.3737 L 29.6325 18.3737 Z " stroke-width="0.660107433795929" fill="undefined"/>
      </g>
      <path id="Spot_4_" fill="#000000" d="M 20.224 32.6538 C 16.5194 32.6531 13.514 35.2605 13.514 38.4772 C 13.514 39.7506 13.9906 40.9223 14.7906 41.8794 C 15.1636 41.9144 15.5451 41.9454 15.9352 41.9718 C 18.8529 41.8537 22.1224 41.9171 25.5906 41.9613 C 26.431 40.9896 26.9333 39.7856 26.9333 38.4772 C 26.9333 35.2605 23.9292 32.6538 20.224 32.6538 L 20.224 32.6538 L 20.224 32.6538 L 20.224 32.6538 L 20.224 32.6538 L 20.224 32.6538 L 20.224 32.6538 Z " stroke-width="0.660107433795929"/>
      <path id="Spot_3_" fill="#000000" d="M 13.0691 29.676 C 13.0691 27.9439 12.1911 26.3979 10.8089 25.3332 C 7.7955 28.1809 5.9241 31.696 5.796 35.477 C 5.9821 35.4916 6.1696 35.4995 6.3597 35.4995 C 10.0649 35.4988 13.0691 32.8927 13.0691 29.676 L 13.0691 29.676 L 13.0691 29.676 L 13.0691 29.676 L 13.0691 29.676 L 13.0691 29.676 L 13.0691 29.676 Z " stroke-width="0.660107433795929"/>
      <path id="Spot_2_" fill="#000000" d="M 41.6068 37.1227 C 39.7209 37.1227 38.1947 38.5116 38.1947 40.2252 C 38.1947 40.8305 38.3921 41.3916 38.7268 41.8675 C 40.8193 41.8121 42.793 41.7428 44.6143 41.6656 C 44.8684 41.2365 45.0176 40.7487 45.0176 40.2245 C 45.0176 38.5096 43.4901 37.1227 41.6068 37.1227 L 41.6068 37.1227 L 41.6068 37.1227 L 41.6068 37.1227 L 41.6068 37.1227 L 41.6068 37.1227 L 41.6068 37.1227 Z " stroke-width="0.660107433795929"/>
      <path id="Spot_1_" fill="#000000" d="M 28.9432 25.4273 C 28.8669 26.701 28.2225 27.8209 27.2434 28.6014 C 26.2642 29.3819 24.9496 29.8223 23.5336 29.7375 C 22.1176 29.6526 20.865 29.0585 19.986 28.1667 C 19.107 27.2748 18.601 26.0859 18.6773 24.8123 C 18.7536 23.5386 19.398 22.4186 20.3771 21.6381 C 21.3563 20.8576 22.6709 20.4172 24.0869 20.5021 C 25.5029 20.5869 26.7555 21.181 27.6345 22.0729 C 28.5135 22.9647 29.0195 24.1536 28.9432 25.4273 L 28.9432 25.4273 L 28.9432 25.4273 L 28.9432 25.4273 L 28.9432 25.4273 L 28.9432 25.4273 Z " stroke-width="0.6601006293439585"/>
      <path id="Spot" fill="#000000" d="M 32.8611 26.1233 C 32.6445 29.713 35.186 32.7865 38.5406 32.9878 C 41.8933 33.1885 44.7846 30.4398 45.0011 26.8481 C 45.0889 25.388 44.7146 24.0169 44.0222 22.8868 C 42.1455 21.7574 40.1328 20.7897 38.0924 20.0437 C 35.2883 20.484 33.0505 22.9806 32.8611 26.1233 L 32.8611 26.1233 L 32.8611 26.1233 L 32.8611 26.1233 L 32.8611 26.1233 L 32.8611 26.1233 L 32.8611 26.1233 Z " stroke-width="0.660107433795929"/>
    </g>
    <g id="Head">
      <path id="Bottom_Antenna" fill="#000000" stroke="#000000" stroke-width="1.9803223013877869" d="M 67.4995 37.1227 C 67.4995 37.1227 74.1521 29.9869 76.3476 31.0735 C 78.5418 32.1587 80.6113 35.5094 82.1315 33.6921 C 83.655 31.8748 80.5921 27.7571 76.3014 27.7809 C 72.0107 27.8046 65.7397 32.9271 65.7397 32.9271 L 67.4995 37.1227 L 67.4995 37.1227 L 67.4995 37.1227 L 67.4995 37.1227 L 67.4995 37.1227 L 67.4995 37.1227 L 67.4995 37.1227 Z "/>
      <path id="Top_Antenna" fill="#000000" stroke="#000000" stroke-width="1.9803223013877869" d="M 67.8718 50.0357 C 67.8718 50.0357 74.5237 57.1721 76.7173 56.0849 C 78.9115 54.9997 80.9809 51.649 82.5038 53.467 C 84.0253 55.2842 80.9644 59.4013 76.6737 59.3776 C 72.383 59.3545 66.112 54.2314 66.112 54.2314 L 67.8718 50.0357 L 67.8718 50.0357 L 67.8718 50.0357 L 67.8718 50.0357 L 67.8718 50.0357 L 67.8718 50.0357 L 67.8718 50.0357 Z "/>
      <g id="Head_1_">
        <path id="ID0.25746554555371404" fill="#000000" d="M 53.7739 58.9709 C 49.2132 58.9709 47.5881 50.8906 47.5881 43.329 C 47.5881 33.5357 49.9004 27.6884 53.7739 27.6884 C 62.255 27.6884 69.4165 34.8513 69.4165 43.329 C 69.4165 51.8074 62.2537 58.9709 53.7739 58.9709 L 53.7739 58.9709 L 53.7739 58.9709 L 53.7739 58.9709 L 53.7739 58.9709 L 53.7739 58.9709 L 53.7739 58.9709 L 53.7739 58.9709 Z " stroke-width="0.660107433795929"/>
        <path id="ID0.32972077559679747" d="M 53.7772 28.6779 C 61.7632 28.6779 68.4263 35.343 68.4263 43.3284 C 68.4263 51.3183 61.7599 57.9801 53.7739 57.9801 C 50.3381 57.9801 48.5782 51.3143 48.5782 43.3284 C 48.5782 35.3411 50.2285 28.6779 53.7739 28.6779 C 53.7752 28.6779 53.7759 28.6779 53.7772 28.6779 M 53.7772 26.6976 L 53.7739 26.6976 C 49.2132 26.6976 46.5979 32.7594 46.5979 43.3284 C 46.5979 53.7429 49.2799 59.9604 53.7739 59.9604 C 58.1656 59.9604 62.3283 58.2164 65.4955 55.0506 C 68.6627 51.884 70.4067 47.7207 70.4067 43.3277 C 70.4067 38.9367 68.6627 34.774 65.4968 31.6075 C 62.3309 28.4416 58.1683 26.6976 53.7772 26.6976 L 53.7772 26.6976 L 53.7772 28.6779 L 53.7772 28.6779 L 53.7772 28.6779 L 53.7772 28.6779 L 53.7772 28.6779 L 53.7772 28.6779 Z " stroke-width="0.660107433795929" fill="undefined"/>
      </g>
      <path id="Mouth" fill="#231F20" d="M 63.7336 46.8184 C 66.619 46.0566 66.6902 40.8358 63.5118 40.4952 C 62.7976 40.4213 62.5461 41.3685 62.9653 41.8154 C 63.4465 42.3263 64.2432 42.7356 64.1112 43.5719 C 64.0148 44.2043 63.6881 44.9951 63.09 45.2909 C 62.2213 45.7206 62.8398 47.0547 63.7336 46.8184 L 63.7336 46.8184 L 63.7336 46.8184 L 63.7336 46.8184 L 63.7336 46.8184 L 63.7336 46.8184 L 63.7336 46.8184 L 63.7336 46.8184 Z " stroke-width="0.660107433795929"/>
      <g id="Bottom_Eye">
        <path id="White_1_" fill="#FFFFFF" d="M 59.301 48.5564 C 59.0396 46.8316 57.1326 45.6823 55.4011 45.9404 C 53.6683 46.2018 52.187 47.8527 52.4451 49.5829 C 52.7039 51.3077 54.6043 52.457 56.3371 52.1989 C 58.0673 51.9388 59.5578 50.2846 59.301 48.5564 L 59.301 48.5564 L 59.301 48.5564 L 59.301 48.5564 L 59.301 48.5564 L 59.301 48.5564 L 59.301 48.5564 Z " stroke-width="0.660107433795929"/>
        <path id="Pupil_1_" fill="#231F20" d="M 57.8996 47.4342 C 58.3551 47.4342 58.7676 47.6085 59.066 47.8897 C 59.365 48.1709 59.5499 48.5591 59.5499 48.9875 C 59.5499 49.4159 59.365 49.804 59.066 50.0852 C 58.7676 50.3664 58.3551 50.5407 57.8996 50.5407 C 57.4441 50.5407 57.0316 50.3664 56.7332 50.0852 C 56.4342 49.804 56.2493 49.4159 56.2493 48.9875 C 56.2493 48.5591 56.4342 48.1709 56.7332 47.8897 C 57.0316 47.6085 57.4441 47.4342 57.8996 47.4342 L 57.8996 47.4342 L 57.8996 47.4342 L 57.8996 47.4342 L 57.8996 47.4342 L 57.8996 47.4342 Z " stroke-width="0.660107433795929"/>
        <path id="Outline_1_" fill="#231F20" d="M 60.7757 48.2514 C 60.3809 45.6123 57.8567 43.8036 55.141 44.2076 C 52.424 44.6143 50.5374 47.0831 50.9341 49.7222 C 51.3295 52.3626 53.8525 54.1726 56.5688 53.766 C 59.2865 53.36 61.1731 50.8912 60.7757 48.2514 L 60.7757 48.2514 L 60.7757 48.2514 L 60.7757 48.2514 L 60.7757 48.2514 L 60.7757 48.2514 L 60.7757 48.2514 Z M 56.3371 52.1989 C 54.6043 52.457 52.7039 51.3077 52.4451 49.5829 C 52.1864 47.8534 53.6683 46.2025 55.4011 45.9404 C 57.1326 45.6817 59.0396 46.8316 59.301 48.5564 C 59.5578 50.2846 58.0673 51.9388 56.3371 52.1989 L 56.3371 52.1989 L 56.3371 52.1989 L 56.3371 52.1989 L 56.3371 52.1989 L 56.3371 52.1989 L 56.3371 52.1989 Z " stroke-width="0.660107433795929"/>
      </g>
      <g id="Top_Eye">
        <path id="White" fill="#FFFFFF" d="M 58.9063 37.332 C 58.6449 35.6071 56.7378 34.4578 55.0063 34.7159 C 53.2736 34.9773 51.7923 36.6283 52.0504 38.3584 C 52.3091 40.0833 54.2096 41.2325 55.9424 40.9744 C 57.6725 40.7143 59.163 39.0601 58.9063 37.332 L 58.9063 37.332 L 58.9063 37.332 L 58.9063 37.332 L 58.9063 37.332 L 58.9063 37.332 L 58.9063 37.332 Z " stroke-width="0.660107433795929"/>
        <path id="Pupil" fill="#231F20" d="M 57.5049 36.2098 C 57.9603 36.2098 58.3729 36.384 58.6713 36.6652 C 58.9703 36.9464 59.1551 37.3346 59.1551 37.763 C 59.1551 38.1914 58.9703 38.5796 58.6713 38.8608 C 58.3729 39.142 57.9603 39.3162 57.5049 39.3162 C 57.0494 39.3162 56.6368 39.142 56.3384 38.8608 C 56.0394 38.5796 55.8546 38.1914 55.8546 37.763 C 55.8546 37.3346 56.0394 36.9464 56.3384 36.6652 C 56.6368 36.384 57.0494 36.2098 57.5049 36.2098 L 57.5049 36.2098 L 57.5049 36.2098 L 57.5049 36.2098 L 57.5049 36.2098 L 57.5049 36.2098 Z " stroke-width="0.660107433795929"/>
        <path id="Outline" fill="#231F20" d="M 60.3816 37.0276 C 59.9869 34.3885 57.4626 32.5798 54.7469 32.9838 C 52.0299 33.3905 50.1433 35.8593 50.5401 38.4984 C 50.9355 41.1388 53.4584 42.9488 56.1747 42.5422 C 58.8924 42.1356 60.7783 39.6668 60.3816 37.0276 L 60.3816 37.0276 L 60.3816 37.0276 L 60.3816 37.0276 L 60.3816 37.0276 L 60.3816 37.0276 L 60.3816 37.0276 Z M 55.9424 40.9744 C 54.2096 41.2325 52.3091 40.0833 52.0504 38.3584 C 51.7916 36.6289 53.2736 34.978 55.0063 34.7159 C 56.7378 34.4572 58.6449 35.6071 58.9063 37.332 C 59.163 39.0601 57.6725 40.7143 55.9424 40.9744 L 55.9424 40.9744 L 55.9424 40.9744 L 55.9424 40.9744 L 55.9424 40.9744 L 55.9424 40.9744 L 55.9424 40.9744 Z " stroke-width="0.660107433795929"/>
      </g>
    </g>
  </g>
</svg>